<mxfile host="Electron" modified="2024-01-17T10:53:38.953Z" agent="Mozilla/5.0 (Macintosh; Intel Mac OS X 10_15_7) AppleWebKit/537.36 (KHTML, like Gecko) draw.io/22.1.18 Chrome/120.0.6099.199 Electron/28.1.2 Safari/537.36" etag="G4YbluwRhLXvFJAqcnEu" version="22.1.18" type="device">
  <diagram name="Sida-1" id="a8eqyGM2VcXPqRdHQ_DW">
    <mxGraphModel dx="3257" dy="2635" grid="1" gridSize="10" guides="1" tooltips="1" connect="1" arrows="1" fold="1" page="1" pageScale="1" pageWidth="827" pageHeight="1169" math="0" shadow="0">
      <root>
        <mxCell id="0" />
        <mxCell id="1" parent="0" />
        <mxCell id="KZAd2MFrPLXnGe_yaYhW-138" value="culsans_tb" style="rounded=0;whiteSpace=wrap;html=1;horizontal=1;verticalAlign=top;fillColor=#f5f5f5;fontColor=#333333;strokeColor=#666666;" vertex="1" parent="1">
          <mxGeometry x="-180" y="-20" width="1210" height="1120" as="geometry" />
        </mxCell>
        <mxCell id="KZAd2MFrPLXnGe_yaYhW-2" value="DUT (culsans_top)" style="rounded=0;whiteSpace=wrap;html=1;verticalAlign=bottom;horizontal=1;labelBackgroundColor=none;align=right;" vertex="1" parent="1">
          <mxGeometry x="30" y="440" width="950" height="630" as="geometry" />
        </mxCell>
        <mxCell id="KZAd2MFrPLXnGe_yaYhW-131" value="Core N-1" style="rounded=0;whiteSpace=wrap;html=1;dashed=1;horizontal=0;verticalAlign=top;opacity=20;labelBackgroundColor=none;fillColor=#dae8fc;strokeColor=none;" vertex="1" parent="1">
          <mxGeometry x="550" y="90" width="410" height="640" as="geometry" />
        </mxCell>
        <mxCell id="KZAd2MFrPLXnGe_yaYhW-130" value="Core 0" style="rounded=0;whiteSpace=wrap;html=1;dashed=1;horizontal=0;verticalAlign=top;opacity=20;labelBackgroundColor=none;strokeColor=none;fillColor=#dae8fc;" vertex="1" parent="1">
          <mxGeometry x="50" y="90" width="410" height="640" as="geometry" />
        </mxCell>
        <mxCell id="KZAd2MFrPLXnGe_yaYhW-3" value="cva6 (stripped)" style="rounded=0;whiteSpace=wrap;html=1;horizontal=1;verticalAlign=bottom;labelBackgroundColor=#FFFFFF;align=right;" vertex="1" parent="1">
          <mxGeometry x="110" y="470" width="320" height="250" as="geometry" />
        </mxCell>
        <mxCell id="KZAd2MFrPLXnGe_yaYhW-58" style="edgeStyle=orthogonalEdgeStyle;rounded=0;orthogonalLoop=1;jettySize=auto;html=1;exitX=0.5;exitY=0;exitDx=0;exitDy=0;startArrow=diamond;startFill=0;labelBackgroundColor=none;fontColor=default;entryX=0.17;entryY=1.002;entryDx=0;entryDy=0;entryPerimeter=0;fillColor=#fff2cc;strokeColor=#d6b656;" edge="1" parent="1" source="KZAd2MFrPLXnGe_yaYhW-19" target="KZAd2MFrPLXnGe_yaYhW-54">
          <mxGeometry relative="1" as="geometry" />
        </mxCell>
        <mxCell id="nXqxrG5YPyN84t3Gushb-6" value="cache subsystem" style="rounded=0;whiteSpace=wrap;html=1;verticalAlign=bottom;labelBackgroundColor=none;horizontal=1;align=right;" parent="1" vertex="1">
          <mxGeometry x="140" y="500" width="270" height="190" as="geometry" />
        </mxCell>
        <mxCell id="KZAd2MFrPLXnGe_yaYhW-12" style="edgeStyle=orthogonalEdgeStyle;rounded=0;orthogonalLoop=1;jettySize=auto;html=1;exitX=0.5;exitY=1;exitDx=0;exitDy=0;entryX=0.75;entryY=1;entryDx=0;entryDy=0;startArrow=classic;startFill=1;labelBackgroundColor=none;fontColor=default;" edge="1" parent="1" source="nXqxrG5YPyN84t3Gushb-4" target="KZAd2MFrPLXnGe_yaYhW-6">
          <mxGeometry relative="1" as="geometry">
            <mxPoint x="249" y="610" as="targetPoint" />
          </mxGeometry>
        </mxCell>
        <mxCell id="nXqxrG5YPyN84t3Gushb-4" value="I$" style="rounded=0;whiteSpace=wrap;html=1;labelBackgroundColor=none;verticalAlign=top;" parent="1" vertex="1">
          <mxGeometry x="180" y="530" width="60" height="60" as="geometry" />
        </mxCell>
        <mxCell id="KZAd2MFrPLXnGe_yaYhW-11" style="edgeStyle=orthogonalEdgeStyle;rounded=0;orthogonalLoop=1;jettySize=auto;html=1;exitX=0.5;exitY=1;exitDx=0;exitDy=0;entryX=0.25;entryY=1;entryDx=0;entryDy=0;startArrow=classic;startFill=1;labelBackgroundColor=none;fontColor=default;" edge="1" parent="1" source="KZAd2MFrPLXnGe_yaYhW-4" target="KZAd2MFrPLXnGe_yaYhW-6">
          <mxGeometry relative="1" as="geometry" />
        </mxCell>
        <mxCell id="KZAd2MFrPLXnGe_yaYhW-62" style="edgeStyle=orthogonalEdgeStyle;rounded=0;orthogonalLoop=1;jettySize=auto;html=1;entryX=0.5;entryY=1;entryDx=0;entryDy=0;endArrow=box;endFill=0;startArrow=classic;startFill=1;dashed=1;labelBackgroundColor=none;fontColor=default;exitX=0.834;exitY=0.001;exitDx=0;exitDy=0;exitPerimeter=0;fillColor=#fff2cc;strokeColor=#d6b656;" edge="1" parent="1" source="KZAd2MFrPLXnGe_yaYhW-4" target="KZAd2MFrPLXnGe_yaYhW-44">
          <mxGeometry relative="1" as="geometry">
            <mxPoint x="400" y="580" as="sourcePoint" />
            <mxPoint x="400" y="400" as="targetPoint" />
            <Array as="points">
              <mxPoint x="370" y="460" />
              <mxPoint x="370" y="460" />
            </Array>
          </mxGeometry>
        </mxCell>
        <mxCell id="KZAd2MFrPLXnGe_yaYhW-4" value="D$" style="rounded=0;whiteSpace=wrap;html=1;labelBackgroundColor=none;verticalAlign=top;" vertex="1" parent="1">
          <mxGeometry x="270" y="530" width="120" height="60" as="geometry" />
        </mxCell>
        <mxCell id="KZAd2MFrPLXnGe_yaYhW-5" style="edgeStyle=orthogonalEdgeStyle;rounded=0;orthogonalLoop=1;jettySize=auto;html=1;exitX=0.5;exitY=1;exitDx=0;exitDy=0;labelBackgroundColor=none;fontColor=default;" edge="1" parent="1" source="nXqxrG5YPyN84t3Gushb-6" target="nXqxrG5YPyN84t3Gushb-6">
          <mxGeometry relative="1" as="geometry" />
        </mxCell>
        <mxCell id="KZAd2MFrPLXnGe_yaYhW-6" value="" style="shape=trapezoid;perimeter=trapezoidPerimeter;whiteSpace=wrap;html=1;fixedSize=1;rotation=-180;labelBackgroundColor=none;size=20;" vertex="1" parent="1">
          <mxGeometry x="205" y="630" width="130" height="20" as="geometry" />
        </mxCell>
        <mxCell id="KZAd2MFrPLXnGe_yaYhW-14" value="" style="edgeStyle=orthogonalEdgeStyle;rounded=0;orthogonalLoop=1;jettySize=auto;html=1;entryX=0.5;entryY=0;entryDx=0;entryDy=0;startArrow=classic;startFill=1;labelBackgroundColor=none;fontColor=default;horizontal=0;verticalAlign=middle;exitX=0.175;exitY=-0.008;exitDx=0;exitDy=0;exitPerimeter=0;" edge="1" parent="1" source="KZAd2MFrPLXnGe_yaYhW-13">
          <mxGeometry x="0.0023" relative="1" as="geometry">
            <mxPoint x="265" y="780.06" as="sourcePoint" />
            <mxPoint x="270" y="650" as="targetPoint" />
            <mxPoint as="offset" />
          </mxGeometry>
        </mxCell>
        <mxCell id="KZAd2MFrPLXnGe_yaYhW-13" value="CCU" style="rounded=0;whiteSpace=wrap;html=1;verticalAlign=middle;labelBackgroundColor=none;" vertex="1" parent="1">
          <mxGeometry x="130" y="780" width="800" height="60" as="geometry" />
        </mxCell>
        <mxCell id="KZAd2MFrPLXnGe_yaYhW-17" style="edgeStyle=orthogonalEdgeStyle;rounded=0;orthogonalLoop=1;jettySize=auto;html=1;exitX=0.5;exitY=1;exitDx=0;exitDy=0;entryX=0.5;entryY=0;entryDx=0;entryDy=0;endArrow=classic;endFill=1;dashed=1;labelBackgroundColor=none;fontColor=default;startArrow=box;startFill=0;fillColor=#fff2cc;strokeColor=#d6b656;" edge="1" parent="1" source="KZAd2MFrPLXnGe_yaYhW-51" target="nXqxrG5YPyN84t3Gushb-4">
          <mxGeometry relative="1" as="geometry">
            <mxPoint x="220" y="460" as="sourcePoint" />
          </mxGeometry>
        </mxCell>
        <mxCell id="KZAd2MFrPLXnGe_yaYhW-19" value="ace&lt;br&gt;monitor" style="rounded=1;whiteSpace=wrap;html=1;labelBackgroundColor=none;fillColor=#fff2cc;strokeColor=#d6b656;" vertex="1" parent="1">
          <mxGeometry x="140" y="180" width="60" height="60" as="geometry" />
        </mxCell>
        <mxCell id="KZAd2MFrPLXnGe_yaYhW-23" style="edgeStyle=orthogonalEdgeStyle;rounded=0;orthogonalLoop=1;jettySize=auto;html=1;exitX=0.5;exitY=1;exitDx=0;exitDy=0;endArrow=oval;endFill=0;dashed=1;labelBackgroundColor=none;fontColor=default;startArrow=box;startFill=0;labelBorderColor=none;fillColor=#fff2cc;strokeColor=#d6b656;" edge="1" parent="1" source="KZAd2MFrPLXnGe_yaYhW-19">
          <mxGeometry relative="1" as="geometry">
            <mxPoint x="-40" y="430" as="sourcePoint" />
            <mxPoint x="270" y="670" as="targetPoint" />
            <Array as="points">
              <mxPoint x="170" y="670" />
              <mxPoint x="270" y="670" />
            </Array>
          </mxGeometry>
        </mxCell>
        <mxCell id="KZAd2MFrPLXnGe_yaYhW-28" value="" style="edgeStyle=orthogonalEdgeStyle;rounded=0;orthogonalLoop=1;jettySize=auto;html=1;startArrow=classic;startFill=1;labelBackgroundColor=default;fontColor=default;horizontal=0;" edge="1" parent="1" source="KZAd2MFrPLXnGe_yaYhW-26" target="KZAd2MFrPLXnGe_yaYhW-13">
          <mxGeometry relative="1" as="geometry">
            <mxPoint x="313.34" y="934.44" as="sourcePoint" />
            <mxPoint x="310.02000000000004" y="820" as="targetPoint" />
          </mxGeometry>
        </mxCell>
        <mxCell id="KZAd2MFrPLXnGe_yaYhW-26" value="XBAR" style="rounded=0;whiteSpace=wrap;html=1;verticalAlign=middle;labelBackgroundColor=none;" vertex="1" parent="1">
          <mxGeometry x="470" y="890" width="120" height="60" as="geometry" />
        </mxCell>
        <mxCell id="KZAd2MFrPLXnGe_yaYhW-33" style="edgeStyle=orthogonalEdgeStyle;rounded=0;orthogonalLoop=1;jettySize=auto;html=1;exitX=0.25;exitY=1;exitDx=0;exitDy=0;endArrow=oval;endFill=0;dashed=1;labelBackgroundColor=none;fontColor=default;startArrow=box;startFill=0;fillColor=#fff2cc;strokeColor=#d6b656;" edge="1" parent="1" source="KZAd2MFrPLXnGe_yaYhW-36">
          <mxGeometry relative="1" as="geometry">
            <mxPoint x="-310" y="580" as="sourcePoint" />
            <mxPoint x="530" y="870" as="targetPoint" />
            <Array as="points">
              <mxPoint x="-75" y="870" />
            </Array>
          </mxGeometry>
        </mxCell>
        <mxCell id="KZAd2MFrPLXnGe_yaYhW-133" style="edgeStyle=orthogonalEdgeStyle;rounded=0;orthogonalLoop=1;jettySize=auto;html=1;exitX=0.5;exitY=1;exitDx=0;exitDy=0;startArrow=box;startFill=0;endArrow=none;endFill=0;dashed=1;fillColor=#fff2cc;strokeColor=#d6b656;" edge="1" parent="1" source="KZAd2MFrPLXnGe_yaYhW-36">
          <mxGeometry relative="1" as="geometry">
            <mxPoint x="590" y="680" as="targetPoint" />
            <Array as="points">
              <mxPoint x="-50" y="750" />
              <mxPoint x="590" y="750" />
            </Array>
          </mxGeometry>
        </mxCell>
        <mxCell id="KZAd2MFrPLXnGe_yaYhW-136" style="edgeStyle=orthogonalEdgeStyle;rounded=0;orthogonalLoop=1;jettySize=auto;html=1;exitX=0.75;exitY=1;exitDx=0;exitDy=0;startArrow=box;startFill=0;endArrow=none;endFill=0;dashed=1;fillColor=#fff2cc;strokeColor=#d6b656;" edge="1" parent="1" source="KZAd2MFrPLXnGe_yaYhW-36">
          <mxGeometry relative="1" as="geometry">
            <mxPoint x="80" y="680" as="targetPoint" />
            <Array as="points">
              <mxPoint x="-25" y="680" />
            </Array>
          </mxGeometry>
        </mxCell>
        <mxCell id="KZAd2MFrPLXnGe_yaYhW-36" value="ace_ccu_monitor / scoreboard" style="rounded=1;whiteSpace=wrap;html=1;labelBackgroundColor=none;fillColor=#fff2cc;strokeColor=#d6b656;" vertex="1" parent="1">
          <mxGeometry x="-100" y="565" width="100" height="50" as="geometry" />
        </mxCell>
        <mxCell id="KZAd2MFrPLXnGe_yaYhW-59" style="edgeStyle=orthogonalEdgeStyle;rounded=0;orthogonalLoop=1;jettySize=auto;html=1;exitX=0.5;exitY=0;exitDx=0;exitDy=0;entryX=0.09;entryY=1.001;entryDx=0;entryDy=0;startArrow=diamond;startFill=0;labelBackgroundColor=none;fontColor=default;entryPerimeter=0;fillColor=#fff2cc;strokeColor=#d6b656;" edge="1" parent="1" source="KZAd2MFrPLXnGe_yaYhW-39" target="KZAd2MFrPLXnGe_yaYhW-54">
          <mxGeometry relative="1" as="geometry" />
        </mxCell>
        <mxCell id="KZAd2MFrPLXnGe_yaYhW-39" value="snoop&lt;br&gt;monitor" style="rounded=1;whiteSpace=wrap;html=1;labelBackgroundColor=none;fillColor=#fff2cc;strokeColor=#d6b656;" vertex="1" parent="1">
          <mxGeometry x="60" y="180" width="60" height="60" as="geometry" />
        </mxCell>
        <mxCell id="KZAd2MFrPLXnGe_yaYhW-43" style="edgeStyle=orthogonalEdgeStyle;rounded=0;orthogonalLoop=1;jettySize=auto;html=1;exitX=0.5;exitY=1;exitDx=0;exitDy=0;endArrow=oval;endFill=0;dashed=1;labelBackgroundColor=none;fontColor=default;startArrow=box;startFill=0;fillColor=#fff2cc;strokeColor=#d6b656;" edge="1" parent="1">
          <mxGeometry relative="1" as="geometry">
            <mxPoint x="80" y="240" as="sourcePoint" />
            <mxPoint x="270" y="680" as="targetPoint" />
            <Array as="points">
              <mxPoint x="80" y="680" />
            </Array>
          </mxGeometry>
        </mxCell>
        <mxCell id="KZAd2MFrPLXnGe_yaYhW-68" style="edgeStyle=orthogonalEdgeStyle;rounded=0;orthogonalLoop=1;jettySize=auto;html=1;endArrow=none;endFill=0;startArrow=box;startFill=0;dashed=1;labelBackgroundColor=none;fontColor=default;exitX=0.5;exitY=1;exitDx=0;exitDy=0;fillColor=#fff2cc;strokeColor=#d6b656;" edge="1" parent="1" source="KZAd2MFrPLXnGe_yaYhW-46">
          <mxGeometry relative="1" as="geometry">
            <mxPoint x="370" y="420" as="targetPoint" />
            <mxPoint x="530" y="300" as="sourcePoint" />
            <Array as="points">
              <mxPoint x="410" y="420" />
            </Array>
          </mxGeometry>
        </mxCell>
        <mxCell id="KZAd2MFrPLXnGe_yaYhW-44" value="dcache driver" style="rounded=1;whiteSpace=wrap;html=1;labelBackgroundColor=none;fillColor=#fff2cc;strokeColor=#d6b656;" vertex="1" parent="1">
          <mxGeometry x="340" y="320" width="60" height="60" as="geometry" />
        </mxCell>
        <mxCell id="KZAd2MFrPLXnGe_yaYhW-51" value="icache&lt;br&gt;driver" style="rounded=1;whiteSpace=wrap;html=1;labelBackgroundColor=none;fillColor=#fff2cc;strokeColor=#d6b656;" vertex="1" parent="1">
          <mxGeometry x="180" y="320" width="60" height="60" as="geometry" />
        </mxCell>
        <mxCell id="KZAd2MFrPLXnGe_yaYhW-79" value="amo + dcache" style="edgeStyle=orthogonalEdgeStyle;rounded=0;orthogonalLoop=1;jettySize=auto;html=1;exitX=0;exitY=0.5;exitDx=0;exitDy=0;exitPerimeter=0;entryX=0;entryY=0.5;entryDx=0;entryDy=0;startArrow=diamond;startFill=0;horizontal=0;labelBackgroundColor=default;fontColor=default;fillColor=#fff2cc;strokeColor=#d6b656;" edge="1" parent="1" source="KZAd2MFrPLXnGe_yaYhW-54" target="KZAd2MFrPLXnGe_yaYhW-77">
          <mxGeometry relative="1" as="geometry">
            <Array as="points">
              <mxPoint x="-150" y="60" />
              <mxPoint x="-150" y="970" />
            </Array>
          </mxGeometry>
        </mxCell>
        <mxCell id="KZAd2MFrPLXnGe_yaYhW-56" style="edgeStyle=orthogonalEdgeStyle;rounded=0;orthogonalLoop=1;jettySize=auto;html=1;exitX=0.5;exitY=0;exitDx=0;exitDy=0;entryX=0.41;entryY=1;entryDx=0;entryDy=0;startArrow=diamond;startFill=0;labelBackgroundColor=none;fontColor=default;entryPerimeter=0;fillColor=#fff2cc;strokeColor=#d6b656;" edge="1" parent="1" source="KZAd2MFrPLXnGe_yaYhW-46" target="KZAd2MFrPLXnGe_yaYhW-54">
          <mxGeometry relative="1" as="geometry" />
        </mxCell>
        <mxCell id="KZAd2MFrPLXnGe_yaYhW-64" style="edgeStyle=orthogonalEdgeStyle;rounded=0;orthogonalLoop=1;jettySize=auto;html=1;dashed=1;startArrow=box;startFill=0;endArrow=none;endFill=0;labelBackgroundColor=none;fontColor=default;exitX=0.5;exitY=1;exitDx=0;exitDy=0;fillColor=#fff2cc;strokeColor=#d6b656;" edge="1" parent="1" source="KZAd2MFrPLXnGe_yaYhW-65">
          <mxGeometry relative="1" as="geometry">
            <mxPoint x="590" y="420" as="sourcePoint" />
            <mxPoint x="290" y="420" as="targetPoint" />
            <Array as="points">
              <mxPoint x="330" y="420" />
            </Array>
          </mxGeometry>
        </mxCell>
        <mxCell id="KZAd2MFrPLXnGe_yaYhW-63" value="dcache&amp;nbsp; mgmt driver" style="rounded=1;whiteSpace=wrap;html=1;labelBackgroundColor=none;fillColor=#fff2cc;strokeColor=#d6b656;" vertex="1" parent="1">
          <mxGeometry x="260" y="320" width="60" height="60" as="geometry" />
        </mxCell>
        <mxCell id="KZAd2MFrPLXnGe_yaYhW-65" value="dcache mgmt&amp;nbsp; monitor" style="rounded=1;whiteSpace=wrap;html=1;labelBackgroundColor=none;fillColor=#fff2cc;strokeColor=#d6b656;" vertex="1" parent="1">
          <mxGeometry x="300" y="180" width="60" height="60" as="geometry" />
        </mxCell>
        <mxCell id="KZAd2MFrPLXnGe_yaYhW-46" value="dcache monitor" style="rounded=1;whiteSpace=wrap;html=1;labelBackgroundColor=none;fillColor=#fff2cc;strokeColor=#d6b656;" vertex="1" parent="1">
          <mxGeometry x="380" y="180" width="60" height="60" as="geometry" />
        </mxCell>
        <mxCell id="KZAd2MFrPLXnGe_yaYhW-72" style="edgeStyle=orthogonalEdgeStyle;rounded=0;orthogonalLoop=1;jettySize=auto;html=1;exitX=0.5;exitY=1;exitDx=0;exitDy=0;entryX=0.5;entryY=0;entryDx=0;entryDy=0;startArrow=classic;startFill=1;labelBackgroundColor=none;fontColor=default;" edge="1" parent="1" source="KZAd2MFrPLXnGe_yaYhW-70" target="KZAd2MFrPLXnGe_yaYhW-71">
          <mxGeometry relative="1" as="geometry" />
        </mxCell>
        <mxCell id="KZAd2MFrPLXnGe_yaYhW-74" style="edgeStyle=orthogonalEdgeStyle;rounded=0;orthogonalLoop=1;jettySize=auto;html=1;exitX=1;exitY=0.5;exitDx=0;exitDy=0;entryX=0;entryY=0.5;entryDx=0;entryDy=0;startArrow=classic;startFill=1;labelBackgroundColor=none;fontColor=default;" edge="1" parent="1" source="KZAd2MFrPLXnGe_yaYhW-70" target="KZAd2MFrPLXnGe_yaYhW-73">
          <mxGeometry relative="1" as="geometry" />
        </mxCell>
        <mxCell id="KZAd2MFrPLXnGe_yaYhW-70" value="LLC" style="rounded=0;whiteSpace=wrap;html=1;verticalAlign=middle;labelBackgroundColor=none;" vertex="1" parent="1">
          <mxGeometry x="160" y="890" width="120" height="60" as="geometry" />
        </mxCell>
        <mxCell id="KZAd2MFrPLXnGe_yaYhW-71" value="DRAM model" style="rounded=0;whiteSpace=wrap;html=1;verticalAlign=middle;labelBackgroundColor=none;" vertex="1" parent="1">
          <mxGeometry x="160" y="990" width="120" height="60" as="geometry" />
        </mxCell>
        <mxCell id="KZAd2MFrPLXnGe_yaYhW-75" style="edgeStyle=orthogonalEdgeStyle;rounded=0;orthogonalLoop=1;jettySize=auto;html=1;exitX=1;exitY=0.5;exitDx=0;exitDy=0;entryX=0;entryY=0.5;entryDx=0;entryDy=0;startArrow=classic;startFill=1;labelBackgroundColor=none;fontColor=default;" edge="1" parent="1" source="KZAd2MFrPLXnGe_yaYhW-73" target="KZAd2MFrPLXnGe_yaYhW-26">
          <mxGeometry relative="1" as="geometry" />
        </mxCell>
        <mxCell id="KZAd2MFrPLXnGe_yaYhW-73" value="atomics" style="rounded=0;whiteSpace=wrap;html=1;verticalAlign=middle;labelBackgroundColor=none;" vertex="1" parent="1">
          <mxGeometry x="310" y="890" width="120" height="60" as="geometry" />
        </mxCell>
        <mxCell id="KZAd2MFrPLXnGe_yaYhW-78" style="edgeStyle=orthogonalEdgeStyle;rounded=0;orthogonalLoop=1;jettySize=auto;html=1;exitX=1;exitY=0.5;exitDx=0;exitDy=0;dashed=1;startArrow=box;startFill=0;endArrow=oval;endFill=0;labelBackgroundColor=none;fontColor=default;fillColor=#fff2cc;strokeColor=#d6b656;" edge="1" parent="1" source="KZAd2MFrPLXnGe_yaYhW-77">
          <mxGeometry relative="1" as="geometry">
            <mxPoint x="220" y="970" as="targetPoint" />
          </mxGeometry>
        </mxCell>
        <mxCell id="KZAd2MFrPLXnGe_yaYhW-77" value="dcache checker" style="rounded=1;whiteSpace=wrap;html=1;labelBackgroundColor=none;fillColor=#fff2cc;strokeColor=#d6b656;" vertex="1" parent="1">
          <mxGeometry x="-120" y="940" width="120" height="60" as="geometry" />
        </mxCell>
        <mxCell id="KZAd2MFrPLXnGe_yaYhW-80" value="SRAM" style="rounded=0;whiteSpace=wrap;html=1;labelBackgroundColor=none;horizontal=0;" vertex="1" parent="1">
          <mxGeometry x="360" y="540" width="30" height="50" as="geometry" />
        </mxCell>
        <mxCell id="KZAd2MFrPLXnGe_yaYhW-81" style="edgeStyle=orthogonalEdgeStyle;rounded=0;orthogonalLoop=1;jettySize=auto;html=1;startArrow=oval;startFill=0;endArrow=box;endFill=0;dashed=1;exitX=1;exitY=0.5;exitDx=0;exitDy=0;labelBackgroundColor=none;fontColor=default;fillColor=#fff2cc;strokeColor=#d6b656;" edge="1" parent="1" source="KZAd2MFrPLXnGe_yaYhW-80">
          <mxGeometry relative="1" as="geometry">
            <mxPoint x="450" y="110" as="targetPoint" />
            <mxPoint x="329.9999999999998" y="629.9999999999999" as="sourcePoint" />
            <Array as="points">
              <mxPoint x="450" y="565" />
            </Array>
          </mxGeometry>
        </mxCell>
        <mxCell id="KZAd2MFrPLXnGe_yaYhW-83" style="edgeStyle=orthogonalEdgeStyle;rounded=0;orthogonalLoop=1;jettySize=auto;html=1;exitX=0.5;exitY=0;exitDx=0;exitDy=0;entryX=0.33;entryY=1;entryDx=0;entryDy=0;entryPerimeter=0;startArrow=diamond;startFill=0;labelBackgroundColor=none;fontColor=default;fillColor=#fff2cc;strokeColor=#d6b656;" edge="1" parent="1" source="KZAd2MFrPLXnGe_yaYhW-65" target="KZAd2MFrPLXnGe_yaYhW-54">
          <mxGeometry relative="1" as="geometry" />
        </mxCell>
        <mxCell id="KZAd2MFrPLXnGe_yaYhW-86" style="edgeStyle=orthogonalEdgeStyle;rounded=0;orthogonalLoop=1;jettySize=auto;html=1;exitX=0.5;exitY=1;exitDx=0;exitDy=0;entryX=0.5;entryY=0;entryDx=0;entryDy=0;startArrow=diamond;startFill=0;labelBackgroundColor=none;fontColor=default;fillColor=#dae8fc;strokeColor=#6c8ebf;" edge="1" parent="1" source="KZAd2MFrPLXnGe_yaYhW-85" target="KZAd2MFrPLXnGe_yaYhW-44">
          <mxGeometry relative="1" as="geometry" />
        </mxCell>
        <mxCell id="KZAd2MFrPLXnGe_yaYhW-85" value="test" style="rounded=1;whiteSpace=wrap;html=1;labelBackgroundColor=none;fillColor=#dae8fc;strokeColor=#6c8ebf;" vertex="1" parent="1">
          <mxGeometry x="350" y="270" width="40" height="20" as="geometry" />
        </mxCell>
        <mxCell id="KZAd2MFrPLXnGe_yaYhW-87" style="edgeStyle=orthogonalEdgeStyle;rounded=0;orthogonalLoop=1;jettySize=auto;html=1;exitX=0.5;exitY=1;exitDx=0;exitDy=0;startArrow=diamond;startFill=0;entryX=0.5;entryY=0;entryDx=0;entryDy=0;labelBackgroundColor=none;fontColor=default;fillColor=#dae8fc;strokeColor=#6c8ebf;" edge="1" parent="1" source="KZAd2MFrPLXnGe_yaYhW-88" target="KZAd2MFrPLXnGe_yaYhW-63">
          <mxGeometry relative="1" as="geometry">
            <mxPoint x="240" y="310" as="targetPoint" />
          </mxGeometry>
        </mxCell>
        <mxCell id="KZAd2MFrPLXnGe_yaYhW-88" value="test" style="rounded=1;whiteSpace=wrap;html=1;labelBackgroundColor=none;fillColor=#dae8fc;strokeColor=#6c8ebf;" vertex="1" parent="1">
          <mxGeometry x="270" y="270" width="40" height="20" as="geometry" />
        </mxCell>
        <mxCell id="KZAd2MFrPLXnGe_yaYhW-89" style="edgeStyle=orthogonalEdgeStyle;rounded=0;orthogonalLoop=1;jettySize=auto;html=1;exitX=0.5;exitY=1;exitDx=0;exitDy=0;entryX=0.169;entryY=0;entryDx=0;entryDy=0;entryPerimeter=0;startArrow=box;startFill=0;dashed=1;labelBackgroundColor=none;fontColor=default;fillColor=#fff2cc;strokeColor=#d6b656;" edge="1" parent="1" source="KZAd2MFrPLXnGe_yaYhW-63" target="KZAd2MFrPLXnGe_yaYhW-4">
          <mxGeometry relative="1" as="geometry" />
        </mxCell>
        <mxCell id="KZAd2MFrPLXnGe_yaYhW-90" style="edgeStyle=orthogonalEdgeStyle;rounded=0;orthogonalLoop=1;jettySize=auto;html=1;exitX=0.5;exitY=1;exitDx=0;exitDy=0;startArrow=diamond;startFill=0;entryX=0.5;entryY=0;entryDx=0;entryDy=0;labelBackgroundColor=none;fontColor=default;fillColor=#dae8fc;strokeColor=#6c8ebf;" edge="1" parent="1" source="KZAd2MFrPLXnGe_yaYhW-91" target="KZAd2MFrPLXnGe_yaYhW-51">
          <mxGeometry relative="1" as="geometry">
            <mxPoint x="240" y="310" as="targetPoint" />
          </mxGeometry>
        </mxCell>
        <mxCell id="KZAd2MFrPLXnGe_yaYhW-91" value="test" style="rounded=1;whiteSpace=wrap;html=1;labelBackgroundColor=none;fillColor=#dae8fc;strokeColor=#6c8ebf;" vertex="1" parent="1">
          <mxGeometry x="190" y="270" width="40" height="20" as="geometry" />
        </mxCell>
        <mxCell id="KZAd2MFrPLXnGe_yaYhW-92" style="edgeStyle=orthogonalEdgeStyle;rounded=0;orthogonalLoop=1;jettySize=auto;html=1;exitX=0.5;exitY=0;exitDx=0;exitDy=0;startArrow=diamond;startFill=0;labelBackgroundColor=none;fontColor=default;entryX=0.67;entryY=1;entryDx=0;entryDy=0;entryPerimeter=0;fillColor=#fff2cc;strokeColor=#d6b656;" edge="1" parent="1" source="KZAd2MFrPLXnGe_yaYhW-103" target="KZAd2MFrPLXnGe_yaYhW-54">
          <mxGeometry relative="1" as="geometry">
            <mxPoint x="669" y="110" as="targetPoint" />
          </mxGeometry>
        </mxCell>
        <mxCell id="KZAd2MFrPLXnGe_yaYhW-93" value="cva6 (stripped)" style="rounded=0;whiteSpace=wrap;html=1;horizontal=1;verticalAlign=bottom;labelBackgroundColor=none;align=right;" vertex="1" parent="1">
          <mxGeometry x="630" y="470" width="300" height="250" as="geometry" />
        </mxCell>
        <mxCell id="KZAd2MFrPLXnGe_yaYhW-94" value="cache subsystem" style="rounded=0;whiteSpace=wrap;html=1;verticalAlign=bottom;labelBackgroundColor=none;align=right;" vertex="1" parent="1">
          <mxGeometry x="650" y="500" width="260" height="190" as="geometry" />
        </mxCell>
        <mxCell id="KZAd2MFrPLXnGe_yaYhW-95" style="edgeStyle=orthogonalEdgeStyle;rounded=0;orthogonalLoop=1;jettySize=auto;html=1;exitX=0.5;exitY=1;exitDx=0;exitDy=0;entryX=0.75;entryY=1;entryDx=0;entryDy=0;startArrow=classic;startFill=1;labelBackgroundColor=none;fontColor=default;" edge="1" parent="1" source="KZAd2MFrPLXnGe_yaYhW-96" target="KZAd2MFrPLXnGe_yaYhW-101">
          <mxGeometry relative="1" as="geometry">
            <mxPoint x="749" y="610" as="targetPoint" />
          </mxGeometry>
        </mxCell>
        <mxCell id="KZAd2MFrPLXnGe_yaYhW-96" value="I$" style="rounded=0;whiteSpace=wrap;html=1;labelBackgroundColor=none;verticalAlign=top;" vertex="1" parent="1">
          <mxGeometry x="680" y="530" width="60" height="60" as="geometry" />
        </mxCell>
        <mxCell id="KZAd2MFrPLXnGe_yaYhW-97" style="edgeStyle=orthogonalEdgeStyle;rounded=0;orthogonalLoop=1;jettySize=auto;html=1;exitX=0.5;exitY=1;exitDx=0;exitDy=0;entryX=0.25;entryY=1;entryDx=0;entryDy=0;startArrow=classic;startFill=1;labelBackgroundColor=none;fontColor=default;" edge="1" parent="1" source="KZAd2MFrPLXnGe_yaYhW-99" target="KZAd2MFrPLXnGe_yaYhW-101">
          <mxGeometry relative="1" as="geometry" />
        </mxCell>
        <mxCell id="KZAd2MFrPLXnGe_yaYhW-98" style="edgeStyle=orthogonalEdgeStyle;rounded=0;orthogonalLoop=1;jettySize=auto;html=1;entryX=0.5;entryY=1;entryDx=0;entryDy=0;endArrow=box;endFill=0;startArrow=classic;startFill=1;dashed=1;labelBackgroundColor=none;fontColor=default;exitX=0.834;exitY=0.001;exitDx=0;exitDy=0;exitPerimeter=0;fillColor=#fff2cc;strokeColor=#d6b656;" edge="1" parent="1" source="KZAd2MFrPLXnGe_yaYhW-99" target="KZAd2MFrPLXnGe_yaYhW-109">
          <mxGeometry relative="1" as="geometry">
            <mxPoint x="900" y="580" as="sourcePoint" />
            <mxPoint x="900" y="400" as="targetPoint" />
            <Array as="points">
              <mxPoint x="870" y="460" />
              <mxPoint x="870" y="460" />
            </Array>
          </mxGeometry>
        </mxCell>
        <mxCell id="KZAd2MFrPLXnGe_yaYhW-99" value="D$" style="rounded=0;whiteSpace=wrap;html=1;labelBackgroundColor=none;verticalAlign=top;" vertex="1" parent="1">
          <mxGeometry x="770" y="530" width="120" height="60" as="geometry" />
        </mxCell>
        <mxCell id="KZAd2MFrPLXnGe_yaYhW-100" style="edgeStyle=orthogonalEdgeStyle;rounded=0;orthogonalLoop=1;jettySize=auto;html=1;exitX=0.5;exitY=1;exitDx=0;exitDy=0;labelBackgroundColor=none;fontColor=default;" edge="1" parent="1" source="KZAd2MFrPLXnGe_yaYhW-94" target="KZAd2MFrPLXnGe_yaYhW-94">
          <mxGeometry relative="1" as="geometry" />
        </mxCell>
        <mxCell id="KZAd2MFrPLXnGe_yaYhW-101" value="" style="shape=trapezoid;perimeter=trapezoidPerimeter;whiteSpace=wrap;html=1;fixedSize=1;rotation=-180;labelBackgroundColor=none;size=20;" vertex="1" parent="1">
          <mxGeometry x="705" y="630" width="130" height="20" as="geometry" />
        </mxCell>
        <mxCell id="KZAd2MFrPLXnGe_yaYhW-102" style="edgeStyle=orthogonalEdgeStyle;rounded=0;orthogonalLoop=1;jettySize=auto;html=1;exitX=0.5;exitY=1;exitDx=0;exitDy=0;entryX=0.5;entryY=0;entryDx=0;entryDy=0;endArrow=classic;endFill=1;dashed=1;labelBackgroundColor=none;fontColor=default;startArrow=box;startFill=0;fillColor=#fff2cc;strokeColor=#d6b656;" edge="1" parent="1" source="KZAd2MFrPLXnGe_yaYhW-110" target="KZAd2MFrPLXnGe_yaYhW-96">
          <mxGeometry relative="1" as="geometry">
            <mxPoint x="720" y="460" as="sourcePoint" />
          </mxGeometry>
        </mxCell>
        <mxCell id="KZAd2MFrPLXnGe_yaYhW-103" value="ace&lt;br&gt;monitor" style="rounded=1;whiteSpace=wrap;html=1;labelBackgroundColor=none;fillColor=#fff2cc;strokeColor=#d6b656;" vertex="1" parent="1">
          <mxGeometry x="640" y="180" width="60" height="60" as="geometry" />
        </mxCell>
        <mxCell id="KZAd2MFrPLXnGe_yaYhW-104" style="edgeStyle=orthogonalEdgeStyle;rounded=0;orthogonalLoop=1;jettySize=auto;html=1;exitX=0.5;exitY=1;exitDx=0;exitDy=0;endArrow=oval;endFill=0;dashed=1;labelBackgroundColor=none;fontColor=default;startArrow=box;startFill=0;labelBorderColor=none;fillColor=#fff2cc;strokeColor=#d6b656;" edge="1" parent="1" source="KZAd2MFrPLXnGe_yaYhW-103">
          <mxGeometry relative="1" as="geometry">
            <mxPoint x="460" y="430" as="sourcePoint" />
            <mxPoint x="770" y="670" as="targetPoint" />
            <Array as="points">
              <mxPoint x="670" y="670" />
            </Array>
          </mxGeometry>
        </mxCell>
        <mxCell id="KZAd2MFrPLXnGe_yaYhW-105" style="edgeStyle=orthogonalEdgeStyle;rounded=0;orthogonalLoop=1;jettySize=auto;html=1;exitX=0.5;exitY=0;exitDx=0;exitDy=0;entryX=0.59;entryY=1.002;entryDx=0;entryDy=0;startArrow=diamond;startFill=0;labelBackgroundColor=none;fontColor=default;entryPerimeter=0;fillColor=#fff2cc;strokeColor=#d6b656;" edge="1" parent="1" source="KZAd2MFrPLXnGe_yaYhW-106" target="KZAd2MFrPLXnGe_yaYhW-54">
          <mxGeometry relative="1" as="geometry">
            <mxPoint x="599" y="110" as="targetPoint" />
          </mxGeometry>
        </mxCell>
        <mxCell id="KZAd2MFrPLXnGe_yaYhW-106" value="snoop&lt;br&gt;monitor" style="rounded=1;whiteSpace=wrap;html=1;labelBackgroundColor=none;fillColor=#fff2cc;strokeColor=#d6b656;" vertex="1" parent="1">
          <mxGeometry x="560" y="180" width="60" height="60" as="geometry" />
        </mxCell>
        <mxCell id="KZAd2MFrPLXnGe_yaYhW-107" style="edgeStyle=orthogonalEdgeStyle;rounded=0;orthogonalLoop=1;jettySize=auto;html=1;endArrow=oval;endFill=0;dashed=1;labelBackgroundColor=none;fontColor=default;startArrow=box;startFill=0;exitX=0.5;exitY=1;exitDx=0;exitDy=0;fillColor=#fff2cc;strokeColor=#d6b656;" edge="1" parent="1" source="KZAd2MFrPLXnGe_yaYhW-106">
          <mxGeometry relative="1" as="geometry">
            <mxPoint x="600" y="270" as="sourcePoint" />
            <mxPoint x="770" y="680" as="targetPoint" />
            <Array as="points">
              <mxPoint x="590" y="680" />
            </Array>
          </mxGeometry>
        </mxCell>
        <mxCell id="KZAd2MFrPLXnGe_yaYhW-108" style="edgeStyle=orthogonalEdgeStyle;rounded=0;orthogonalLoop=1;jettySize=auto;html=1;endArrow=none;endFill=0;startArrow=box;startFill=0;dashed=1;labelBackgroundColor=none;fontColor=default;exitX=0.5;exitY=1;exitDx=0;exitDy=0;fillColor=#fff2cc;strokeColor=#d6b656;" edge="1" parent="1" source="KZAd2MFrPLXnGe_yaYhW-115">
          <mxGeometry relative="1" as="geometry">
            <mxPoint x="870" y="420" as="targetPoint" />
            <mxPoint x="1030" y="300" as="sourcePoint" />
            <Array as="points">
              <mxPoint x="910" y="420" />
            </Array>
          </mxGeometry>
        </mxCell>
        <mxCell id="KZAd2MFrPLXnGe_yaYhW-109" value="dcache driver" style="rounded=1;whiteSpace=wrap;html=1;labelBackgroundColor=none;fillColor=#fff2cc;strokeColor=#d6b656;" vertex="1" parent="1">
          <mxGeometry x="840" y="320" width="60" height="60" as="geometry" />
        </mxCell>
        <mxCell id="KZAd2MFrPLXnGe_yaYhW-110" value="icache&lt;br&gt;driver" style="rounded=1;whiteSpace=wrap;html=1;labelBackgroundColor=none;fillColor=#fff2cc;strokeColor=#d6b656;" vertex="1" parent="1">
          <mxGeometry x="680" y="320" width="60" height="60" as="geometry" />
        </mxCell>
        <mxCell id="KZAd2MFrPLXnGe_yaYhW-111" style="edgeStyle=orthogonalEdgeStyle;rounded=0;orthogonalLoop=1;jettySize=auto;html=1;exitX=0.5;exitY=0;exitDx=0;exitDy=0;entryX=0.91;entryY=1.002;entryDx=0;entryDy=0;startArrow=diamond;startFill=0;labelBackgroundColor=none;fontColor=default;entryPerimeter=0;fillColor=#fff2cc;strokeColor=#d6b656;" edge="1" parent="1" source="KZAd2MFrPLXnGe_yaYhW-115" target="KZAd2MFrPLXnGe_yaYhW-54">
          <mxGeometry relative="1" as="geometry">
            <mxPoint x="879" y="110" as="targetPoint" />
          </mxGeometry>
        </mxCell>
        <mxCell id="KZAd2MFrPLXnGe_yaYhW-112" style="edgeStyle=orthogonalEdgeStyle;rounded=0;orthogonalLoop=1;jettySize=auto;html=1;dashed=1;startArrow=box;startFill=0;endArrow=none;endFill=0;labelBackgroundColor=none;fontColor=default;exitX=0.5;exitY=1;exitDx=0;exitDy=0;fillColor=#fff2cc;strokeColor=#d6b656;" edge="1" parent="1" source="KZAd2MFrPLXnGe_yaYhW-114">
          <mxGeometry relative="1" as="geometry">
            <mxPoint x="1090" y="420" as="sourcePoint" />
            <mxPoint x="790" y="420" as="targetPoint" />
            <Array as="points">
              <mxPoint x="830" y="420" />
            </Array>
          </mxGeometry>
        </mxCell>
        <mxCell id="KZAd2MFrPLXnGe_yaYhW-113" value="dcache&amp;nbsp; mgmt driver" style="rounded=1;whiteSpace=wrap;html=1;labelBackgroundColor=none;fillColor=#fff2cc;strokeColor=#d6b656;" vertex="1" parent="1">
          <mxGeometry x="760" y="320" width="60" height="60" as="geometry" />
        </mxCell>
        <mxCell id="KZAd2MFrPLXnGe_yaYhW-114" value="dcache mgmt&amp;nbsp; monitor" style="rounded=1;whiteSpace=wrap;html=1;labelBackgroundColor=none;fillColor=#fff2cc;strokeColor=#d6b656;" vertex="1" parent="1">
          <mxGeometry x="800" y="180" width="60" height="60" as="geometry" />
        </mxCell>
        <mxCell id="KZAd2MFrPLXnGe_yaYhW-115" value="dcache monitor" style="rounded=1;whiteSpace=wrap;html=1;labelBackgroundColor=none;fillColor=#fff2cc;strokeColor=#d6b656;" vertex="1" parent="1">
          <mxGeometry x="880" y="180" width="60" height="60" as="geometry" />
        </mxCell>
        <mxCell id="KZAd2MFrPLXnGe_yaYhW-116" value="SRAM" style="rounded=0;whiteSpace=wrap;html=1;labelBackgroundColor=none;horizontal=0;" vertex="1" parent="1">
          <mxGeometry x="860" y="540" width="30" height="50" as="geometry" />
        </mxCell>
        <mxCell id="KZAd2MFrPLXnGe_yaYhW-118" style="edgeStyle=orthogonalEdgeStyle;rounded=0;orthogonalLoop=1;jettySize=auto;html=1;exitX=0.5;exitY=0;exitDx=0;exitDy=0;entryX=0.83;entryY=0.996;entryDx=0;entryDy=0;entryPerimeter=0;startArrow=diamond;startFill=0;labelBackgroundColor=none;fontColor=default;fillColor=#fff2cc;strokeColor=#d6b656;" edge="1" parent="1" source="KZAd2MFrPLXnGe_yaYhW-114" target="KZAd2MFrPLXnGe_yaYhW-54">
          <mxGeometry relative="1" as="geometry">
            <mxPoint x="770" y="110" as="targetPoint" />
          </mxGeometry>
        </mxCell>
        <mxCell id="KZAd2MFrPLXnGe_yaYhW-119" style="edgeStyle=orthogonalEdgeStyle;rounded=0;orthogonalLoop=1;jettySize=auto;html=1;exitX=0.5;exitY=1;exitDx=0;exitDy=0;entryX=0.5;entryY=0;entryDx=0;entryDy=0;startArrow=diamond;startFill=0;labelBackgroundColor=none;fontColor=default;fillColor=#dae8fc;strokeColor=#6c8ebf;" edge="1" parent="1" source="KZAd2MFrPLXnGe_yaYhW-120" target="KZAd2MFrPLXnGe_yaYhW-109">
          <mxGeometry relative="1" as="geometry" />
        </mxCell>
        <mxCell id="KZAd2MFrPLXnGe_yaYhW-120" value="test" style="rounded=1;whiteSpace=wrap;html=1;labelBackgroundColor=none;fillColor=#dae8fc;strokeColor=#6c8ebf;" vertex="1" parent="1">
          <mxGeometry x="850" y="270" width="40" height="20" as="geometry" />
        </mxCell>
        <mxCell id="KZAd2MFrPLXnGe_yaYhW-121" style="edgeStyle=orthogonalEdgeStyle;rounded=0;orthogonalLoop=1;jettySize=auto;html=1;exitX=0.5;exitY=1;exitDx=0;exitDy=0;startArrow=diamond;startFill=0;entryX=0.5;entryY=0;entryDx=0;entryDy=0;labelBackgroundColor=none;fontColor=default;fillColor=#dae8fc;strokeColor=#6c8ebf;" edge="1" parent="1" source="KZAd2MFrPLXnGe_yaYhW-122" target="KZAd2MFrPLXnGe_yaYhW-113">
          <mxGeometry relative="1" as="geometry">
            <mxPoint x="740" y="310" as="targetPoint" />
          </mxGeometry>
        </mxCell>
        <mxCell id="KZAd2MFrPLXnGe_yaYhW-122" value="test" style="rounded=1;whiteSpace=wrap;html=1;labelBackgroundColor=none;fillColor=#dae8fc;strokeColor=#6c8ebf;" vertex="1" parent="1">
          <mxGeometry x="770" y="270" width="40" height="20" as="geometry" />
        </mxCell>
        <mxCell id="KZAd2MFrPLXnGe_yaYhW-123" style="edgeStyle=orthogonalEdgeStyle;rounded=0;orthogonalLoop=1;jettySize=auto;html=1;exitX=0.5;exitY=1;exitDx=0;exitDy=0;entryX=0.169;entryY=0;entryDx=0;entryDy=0;entryPerimeter=0;startArrow=box;startFill=0;dashed=1;labelBackgroundColor=none;fontColor=default;fillColor=#fff2cc;strokeColor=#d6b656;" edge="1" parent="1" source="KZAd2MFrPLXnGe_yaYhW-113" target="KZAd2MFrPLXnGe_yaYhW-99">
          <mxGeometry relative="1" as="geometry" />
        </mxCell>
        <mxCell id="KZAd2MFrPLXnGe_yaYhW-124" style="edgeStyle=orthogonalEdgeStyle;rounded=0;orthogonalLoop=1;jettySize=auto;html=1;exitX=0.5;exitY=1;exitDx=0;exitDy=0;startArrow=diamond;startFill=0;entryX=0.5;entryY=0;entryDx=0;entryDy=0;labelBackgroundColor=none;fontColor=default;fillColor=#dae8fc;strokeColor=#6c8ebf;" edge="1" parent="1" source="KZAd2MFrPLXnGe_yaYhW-125" target="KZAd2MFrPLXnGe_yaYhW-110">
          <mxGeometry relative="1" as="geometry">
            <mxPoint x="740" y="310" as="targetPoint" />
          </mxGeometry>
        </mxCell>
        <mxCell id="KZAd2MFrPLXnGe_yaYhW-125" value="test" style="rounded=1;whiteSpace=wrap;html=1;labelBackgroundColor=none;fillColor=#dae8fc;strokeColor=#6c8ebf;" vertex="1" parent="1">
          <mxGeometry x="690" y="270" width="40" height="20" as="geometry" />
        </mxCell>
        <mxCell id="KZAd2MFrPLXnGe_yaYhW-127" style="edgeStyle=orthogonalEdgeStyle;rounded=0;orthogonalLoop=1;jettySize=auto;html=1;exitX=0;exitY=0.25;exitDx=0;exitDy=0;entryX=1;entryY=0.25;entryDx=0;entryDy=0;startArrow=classic;startFill=1;labelBackgroundColor=none;fontColor=default;" edge="1" parent="1" source="KZAd2MFrPLXnGe_yaYhW-126" target="KZAd2MFrPLXnGe_yaYhW-26">
          <mxGeometry relative="1" as="geometry" />
        </mxCell>
        <mxCell id="KZAd2MFrPLXnGe_yaYhW-128" style="edgeStyle=orthogonalEdgeStyle;rounded=0;orthogonalLoop=1;jettySize=auto;html=1;exitX=0;exitY=0.5;exitDx=0;exitDy=0;entryX=1;entryY=0.5;entryDx=0;entryDy=0;startArrow=classic;startFill=1;labelBackgroundColor=none;fontColor=default;" edge="1" parent="1" source="KZAd2MFrPLXnGe_yaYhW-126" target="KZAd2MFrPLXnGe_yaYhW-26">
          <mxGeometry relative="1" as="geometry" />
        </mxCell>
        <mxCell id="KZAd2MFrPLXnGe_yaYhW-117" style="edgeStyle=orthogonalEdgeStyle;rounded=0;orthogonalLoop=1;jettySize=auto;html=1;entryX=0.95;entryY=0.996;entryDx=0;entryDy=0;entryPerimeter=0;startArrow=oval;startFill=0;endArrow=box;endFill=0;dashed=1;exitX=1;exitY=0.5;exitDx=0;exitDy=0;labelBackgroundColor=none;fontColor=default;fillColor=#fff2cc;strokeColor=#d6b656;" edge="1" parent="1" source="KZAd2MFrPLXnGe_yaYhW-116" target="KZAd2MFrPLXnGe_yaYhW-54">
          <mxGeometry relative="1" as="geometry">
            <mxPoint x="941" y="110" as="targetPoint" />
            <mxPoint x="829.9999999999998" y="629.9999999999999" as="sourcePoint" />
            <Array as="points">
              <mxPoint x="950" y="565" />
            </Array>
          </mxGeometry>
        </mxCell>
        <mxCell id="KZAd2MFrPLXnGe_yaYhW-129" style="edgeStyle=orthogonalEdgeStyle;rounded=0;orthogonalLoop=1;jettySize=auto;html=1;exitX=0;exitY=0.75;exitDx=0;exitDy=0;entryX=1;entryY=0.75;entryDx=0;entryDy=0;startArrow=classic;startFill=1;labelBackgroundColor=none;fontColor=default;" edge="1" parent="1" source="KZAd2MFrPLXnGe_yaYhW-126" target="KZAd2MFrPLXnGe_yaYhW-26">
          <mxGeometry relative="1" as="geometry" />
        </mxCell>
        <mxCell id="KZAd2MFrPLXnGe_yaYhW-126" value="Peripherals" style="rounded=0;whiteSpace=wrap;html=1;verticalAlign=middle;labelBackgroundColor=none;" vertex="1" parent="1">
          <mxGeometry x="660" y="890" width="120" height="60" as="geometry" />
        </mxCell>
        <mxCell id="KZAd2MFrPLXnGe_yaYhW-132" style="edgeStyle=orthogonalEdgeStyle;rounded=0;orthogonalLoop=1;jettySize=auto;html=1;exitX=0.5;exitY=0;exitDx=0;exitDy=0;entryX=0.8;entryY=-0.002;entryDx=0;entryDy=0;entryPerimeter=0;startArrow=classic;startFill=1;" edge="1" parent="1" source="KZAd2MFrPLXnGe_yaYhW-101" target="KZAd2MFrPLXnGe_yaYhW-13">
          <mxGeometry relative="1" as="geometry">
            <Array as="points">
              <mxPoint x="770" y="670" />
              <mxPoint x="770" y="670" />
            </Array>
          </mxGeometry>
        </mxCell>
        <mxCell id="KZAd2MFrPLXnGe_yaYhW-54" value="std_cache_scoreboard" style="rounded=1;whiteSpace=wrap;html=1;arcSize=13;points=[[0,0,0,0,0],[0,0.25,0,0,0],[0,0.5,0,0,0],[0,0.75,0,0,0],[0,1,0,0,0],[0.2,1,0,0,0],[0.25,0,0,0,0],[0.25,1,0,0,0],[0.5,0,0,0,0],[0.5,1,0,0,0],[0.6,1,0,0,0],[0.75,0,0,0,0],[0.75,1,0,0,0],[1,0,0,0,0],[1,0.25,0,0,0],[1,0.5,0,0,0],[1,0.75,0,0,0],[1,1,0,0,0]];labelBackgroundColor=none;fillColor=#fff2cc;strokeColor=#d6b656;" vertex="1" parent="1">
          <mxGeometry y="10" width="1000" height="100" as="geometry" />
        </mxCell>
      </root>
    </mxGraphModel>
  </diagram>
</mxfile>
